<mxfile host="Electron" modified="2023-06-16T16:22:25.980Z" agent="Mozilla/5.0 (Windows NT 10.0; Win64; x64) AppleWebKit/537.36 (KHTML, like Gecko) draw.io/21.4.0 Chrome/112.0.5615.204 Electron/24.5.1 Safari/537.36" etag="dC98-N4OuiQR69wRY7qV" version="21.4.0" type="device">
  <diagram name="Seite-1" id="4lPOYhW_lLVPdjzJCk_u">
    <mxGraphModel dx="523" dy="394" grid="1" gridSize="10" guides="1" tooltips="1" connect="1" arrows="1" fold="1" page="1" pageScale="1" pageWidth="827" pageHeight="1169" math="0" shadow="0">
      <root>
        <mxCell id="0" />
        <mxCell id="1" parent="0" />
        <mxCell id="5wNKKO8rFHwYjoF5Nhn3-1" value="" style="edgeStyle=orthogonalEdgeStyle;rounded=0;orthogonalLoop=1;jettySize=auto;html=1;dashed=1;entryX=0.5;entryY=0;entryDx=0;entryDy=0;" edge="1" parent="1" source="5wNKKO8rFHwYjoF5Nhn3-7" target="5wNKKO8rFHwYjoF5Nhn3-4">
          <mxGeometry relative="1" as="geometry" />
        </mxCell>
        <mxCell id="5wNKKO8rFHwYjoF5Nhn3-2" style="edgeStyle=orthogonalEdgeStyle;rounded=0;orthogonalLoop=1;jettySize=auto;html=1;dashed=1;" edge="1" parent="1" source="5wNKKO8rFHwYjoF5Nhn3-9" target="5wNKKO8rFHwYjoF5Nhn3-5">
          <mxGeometry relative="1" as="geometry" />
        </mxCell>
        <mxCell id="5wNKKO8rFHwYjoF5Nhn3-3" value="Policy Service" style="rounded=1;whiteSpace=wrap;html=1;" vertex="1" parent="1">
          <mxGeometry x="244" y="487" width="120" height="60" as="geometry" />
        </mxCell>
        <mxCell id="5wNKKO8rFHwYjoF5Nhn3-4" value="Notification Service" style="rounded=1;whiteSpace=wrap;html=1;" vertex="1" parent="1">
          <mxGeometry x="244" y="630" width="120" height="60" as="geometry" />
        </mxCell>
        <mxCell id="5wNKKO8rFHwYjoF5Nhn3-11" style="edgeStyle=orthogonalEdgeStyle;rounded=0;orthogonalLoop=1;jettySize=auto;html=1;entryX=1;entryY=0.5;entryDx=0;entryDy=0;dashed=1;" edge="1" parent="1" source="5wNKKO8rFHwYjoF5Nhn3-5" target="5wNKKO8rFHwYjoF5Nhn3-7">
          <mxGeometry relative="1" as="geometry">
            <Array as="points">
              <mxPoint x="520" y="585" />
            </Array>
          </mxGeometry>
        </mxCell>
        <mxCell id="5wNKKO8rFHwYjoF5Nhn3-5" value="Billing Service" style="rounded=1;whiteSpace=wrap;html=1;" vertex="1" parent="1">
          <mxGeometry x="464" y="487" width="120" height="60" as="geometry" />
        </mxCell>
        <mxCell id="5wNKKO8rFHwYjoF5Nhn3-7" value="2" style="ellipse;whiteSpace=wrap;html=1;" vertex="1" parent="1">
          <mxGeometry x="404" y="575" width="20" height="20" as="geometry" />
        </mxCell>
        <mxCell id="5wNKKO8rFHwYjoF5Nhn3-8" value="" style="edgeStyle=orthogonalEdgeStyle;rounded=0;orthogonalLoop=1;jettySize=auto;html=1;dashed=1;endArrow=none;endFill=0;" edge="1" parent="1" source="5wNKKO8rFHwYjoF5Nhn3-3" target="5wNKKO8rFHwYjoF5Nhn3-9">
          <mxGeometry relative="1" as="geometry">
            <mxPoint x="364" y="517" as="sourcePoint" />
            <mxPoint x="464" y="517" as="targetPoint" />
          </mxGeometry>
        </mxCell>
        <mxCell id="5wNKKO8rFHwYjoF5Nhn3-9" value="1" style="ellipse;whiteSpace=wrap;html=1;" vertex="1" parent="1">
          <mxGeometry x="404" y="507" width="20" height="20" as="geometry" />
        </mxCell>
        <mxCell id="5wNKKO8rFHwYjoF5Nhn3-10" value="Policy Service" style="rounded=1;whiteSpace=wrap;html=1;" vertex="1" parent="1">
          <mxGeometry x="244" y="487" width="120" height="60" as="geometry" />
        </mxCell>
      </root>
    </mxGraphModel>
  </diagram>
</mxfile>
